<svg width="79" height="15" viewBox="0 0 79 15" fill="none" xmlns="http://www.w3.org/2000/svg">
<path fill-rule="evenodd" clip-rule="evenodd" d="M45.3766 3.05258V1.29008C45.3766 1.02335 45.5792 0.844396 45.8223 0.844396H53.713C53.9662 0.844396 54.1688 1.02672 54.1688 1.29008V2.79935C54.1654 3.05258 53.9527 3.38347 53.5746 3.90681L49.4857 9.74465C51.0051 9.70751 52.6089 9.93373 53.9865 10.7103C54.2971 10.8859 54.3815 11.1425 54.4052 11.3957V13.2764C54.4052 13.533 54.1215 13.8335 53.8244 13.6782C51.3968 12.4053 48.1723 12.2668 45.488 13.6917C45.2145 13.8403 44.9275 13.5431 44.9275 13.2865V11.5004C44.9275 11.2134 44.9309 10.7238 45.2179 10.2883L49.955 3.49489H45.8324C45.5792 3.49489 45.3766 3.31594 45.3766 3.05258Z" fill="#4C4C4D"/>
<path fill-rule="evenodd" clip-rule="evenodd" d="M16.5926 14.0496H14.1919C13.9623 14.0327 13.78 13.8605 13.7631 13.6411V1.3205C13.7631 1.07402 13.9691 0.878185 14.2257 0.878185H16.4643C16.6972 0.888307 16.8829 1.06726 16.8998 1.29011V2.90066H16.9437C17.5278 1.34413 18.6252 0.6182 20.104 0.6182C21.6066 0.6182 22.5452 1.34413 23.2205 2.90066C23.8012 1.34413 25.1214 0.6182 26.5361 0.6182C27.5423 0.6182 28.643 1.0335 29.3149 1.96539C30.0746 3.00195 29.9193 4.50784 29.9193 5.82802L29.9159 13.6039C29.9159 13.8504 29.71 14.0496 29.4534 14.0496H27.0561C26.8164 14.0327 26.6239 13.8403 26.6239 13.6039V7.07392C26.6239 6.55395 26.6712 5.25741 26.5564 4.76445C26.3774 3.93722 25.8406 3.70425 25.145 3.70425C24.5643 3.70425 23.9565 4.09254 23.7101 4.7138C23.4636 5.33506 23.4872 6.375 23.4872 7.07392V13.6039C23.4872 13.8504 23.2813 14.0496 23.0247 14.0496H20.6274C20.3843 14.0327 20.1952 13.8403 20.1952 13.6039L20.1918 7.07392C20.1918 5.69972 20.4181 3.67724 18.713 3.67724C16.9876 3.67724 17.0551 5.64907 17.0551 7.07392V13.6039C17.0551 13.8504 16.8492 14.0496 16.5926 14.0496Z" fill="#4C4C4D"/>
<path fill-rule="evenodd" clip-rule="evenodd" d="M60.9621 0.6182C64.5242 0.6182 66.4521 3.67724 66.4521 7.56688C66.4521 11.3248 64.3216 14.3062 60.9621 14.3062C57.4641 14.3062 55.5598 11.2472 55.5598 7.4352C55.5598 3.59958 57.4877 0.6182 60.9621 0.6182ZM60.9823 3.13364C59.2131 3.13364 59.1017 5.5444 59.1017 7.04691C59.1017 8.55279 59.078 11.7671 60.9621 11.7671C62.8225 11.7671 62.9103 9.17406 62.9103 7.59389C62.9103 6.55395 62.8664 5.31143 62.5524 4.32551C62.2823 3.4679 61.7454 3.13364 60.9823 3.13364Z" fill="#4C4C4D"/>
<path fill-rule="evenodd" clip-rule="evenodd" d="M71.0712 14.0496H68.6807C68.4409 14.0327 68.2485 13.8403 68.2485 13.6039L68.2451 1.27998C68.2654 1.05376 68.4646 0.878185 68.7077 0.878185H70.9328C71.1421 0.888307 71.3143 1.03012 71.3616 1.22258V3.10662H71.4054C72.0774 1.42179 73.0194 0.6182 74.6772 0.6182C75.7543 0.6182 76.8043 1.00649 77.4796 2.07006C78.1076 3.05598 78.1076 4.7138 78.1076 5.90568V13.6613C78.0806 13.8774 77.8814 14.0496 77.6451 14.0496H75.2377C75.0182 14.0327 74.8359 13.8707 74.8123 13.6613V6.96925C74.8123 5.62206 74.9676 3.65023 73.3097 3.65023C72.7256 3.65023 72.1888 4.04189 71.922 4.63614C71.5844 5.38909 71.5405 6.13865 71.5405 6.96925V13.6039C71.5371 13.8504 71.3278 14.0496 71.0712 14.0496Z" fill="#4C4C4D"/>
<path fill-rule="evenodd" clip-rule="evenodd" d="M39.0863 8.16448C39.0863 9.09975 39.11 9.87971 38.6373 10.7103C38.2557 11.3856 37.648 11.8009 36.9761 11.8009C36.0543 11.8009 35.5141 11.0986 35.5141 10.062C35.5141 8.01592 37.3475 7.64452 39.0863 7.64452V8.16448ZM41.5072 14.0158C41.3485 14.1576 41.1189 14.1678 40.94 14.0732C40.1432 13.4114 39.998 13.1042 39.5624 12.4728C38.2456 13.8166 37.3103 14.2184 35.6052 14.2184C33.5828 14.2184 32.0127 12.9725 32.0127 10.4773C32.0127 8.52914 33.0662 7.2022 34.5721 6.55393C35.8754 5.97994 37.6953 5.87865 39.0863 5.71995V5.40932C39.0863 4.83871 39.1302 4.16342 38.7926 3.67046C38.5022 3.22815 37.9417 3.04582 37.4454 3.04582C36.5304 3.04582 35.7167 3.51515 35.5175 4.48756C35.4769 4.70365 35.3183 4.91636 35.0988 4.92649L32.7724 4.67664C32.5766 4.63275 32.3571 4.47405 32.4145 4.17355C32.948 1.35086 35.5006 0.5 37.783 0.5C38.9513 0.5 40.4774 0.810632 41.3992 1.69525C42.5674 2.78584 42.456 4.24108 42.456 5.82462V9.5657C42.456 10.6901 42.922 11.183 43.3609 11.7908C43.5128 12.0069 43.5466 12.2668 43.3507 12.4289C42.8612 12.8375 41.9901 13.5972 41.5106 14.0226L41.5072 14.0158Z" fill="#4C4C4D"/>
<path fill-rule="evenodd" clip-rule="evenodd" d="M7.61462 8.16448C7.61462 9.09975 7.63825 9.8797 7.16556 10.7103C6.78402 11.3856 6.17964 11.8009 5.50435 11.8009C4.58259 11.8009 4.04574 11.0986 4.04574 10.062C4.04574 8.01592 5.87914 7.64451 7.61462 7.64451V8.16448ZM10.0355 14.0158C9.87682 14.1576 9.64722 14.1678 9.46827 14.0732C8.67144 13.4114 8.52963 13.1042 8.09069 12.4728C6.77389 13.8166 5.842 14.2184 4.13353 14.2184C2.11443 14.2184 0.541016 12.9725 0.541016 10.4773C0.541016 8.52913 1.59784 7.2022 3.10034 6.55393C4.40364 5.97993 6.22353 5.87864 7.61462 5.71995V5.40932C7.61462 4.8387 7.65851 4.16342 7.32425 3.67046C7.0305 3.22815 6.47001 3.04582 5.97705 3.04582C5.06205 3.04582 4.24495 3.51515 4.04574 4.48755C4.00522 4.70365 3.84653 4.91636 3.63044 4.92649L1.30071 4.67663C1.10488 4.63274 0.888786 4.47405 0.942809 4.17355C1.47966 1.35086 4.02886 0.5 6.31132 0.5C7.47956 0.5 9.0057 0.810631 9.92747 1.69525C11.0957 2.78584 10.9843 4.24108 10.9843 5.82462V9.56569C10.9843 10.69 11.4502 11.183 11.8892 11.7908C12.0445 12.0068 12.0782 12.2668 11.8824 12.4289C11.3928 12.8374 10.5217 13.5971 10.0423 14.0226L10.0355 14.0158Z" fill="#4C4C4D"/>
</svg>
